# AST/ASF file generated using VICON BodyLanguage
# -----------------------------------------------
:version 1.10
:name VICON
:units
  mass 1.0
  length 0.45
  angle deg
:documentation
   .ast/.asf automatically generated from VICON data using
   VICON BodyBuilder and BodyLanguage model FoxedUp or BRILLIANT.MOD
:root
   order TX TY TZ RX RY RZ
   axis XYZ
   position 0 0 0  
   orientation 0 0 0 
:bonedata
  begin
     id 1 
     name lhipjoint
     direction 0.610259 -0.730986 0.305356 
     length 2.50941 
     axis 0 0 0  XYZ
  end
  begin
     id 2 
     name lfemur
     direction 0.34202 -0.939693 0  
     length 7.48822  
     axis 0 0 20  XYZ
    dof rx ry rz
    limits (-160.0 20.0)
           (-70.0 70.0)
           (-60.0 70.0)
  end
  begin
     id 3 
     name ltibia
     direction 0.34202 -0.939693 0   
     length 7.60141   
     axis 0 0 20   XYZ
    dof rx
    limits (-10.0 170.0)
  end
  begin
     id 4 
     name lfoot
     direction 0.0673488 -0.185039 0.980421   
     length 2.04049   
     axis -90 7.62852e-016 20   XYZ
    dof rx rz
    limits (-45.0 90.0)
           (-70.0 20.0)
  end
  begin
     id 5 
     name ltoes
     direction 1.5356e-011 -4.21729e-011 1   
     length 1.02897   
     axis -90 7.62852e-016 20   XYZ
    dof rx
    limits (-90.0 20.0)
  end
  begin
     id 6 
     name rhipjoint
     direction -0.57612 -0.754205 0.315056   
     length 2.43216  
     axis 0 0 0  XYZ 
  end
  begin
     id 7 
     name rfemur
     direction -0.34202 -0.939693 0   
     length 7.42799   
     axis 0 0 -20   XYZ
    dof rx ry rz
    limits (-160.0 20.0)
           (-70.0 70.0)
           (-70.0 60.0)
  end
  begin
     id 8 
     name rtibia
     direction -0.34202 -0.939693 0   
     length 7.69484   
     axis 0 0 -20   XYZ
    dof rx
    limits (-10.0 170.0)
 end
 begin
     id 9 
     name rfoot
     direction -0.111837 -0.30727 0.945028   
     length 2.15769  
     axis -90 -7.62852e-016 -20   XYZ
    dof rx rz
    limits (-45.0 90.0)
           (-20.0 70.0)
  end
  begin
     id 10 
     name rtoes
     direction -1.53539e-011 -4.21878e-011 1   
     length 1.07391   
     axis -90 -7.62852e-016 -20   XYZ
    dof rx
    limits (-90.0 20.0)
  end
  begin
     id 11 
     name lowerback
     direction 0.00552624 0.990109 -0.140195   
     length 2.12403   
     axis 0 0 0   XYZ
    dof rx ry rz
    limits (-20.0 45.0)
           (-30.0 30.0)
           (-30.0 30.0)
  end
  begin
     id 12 
     name upperback
     direction 0.00361898 0.999976 -0.00584723   
     length 2.13232   
     axis 0 0 0   XYZ
    dof rx ry rz
    limits (-20.0 45.0)
           (-30.0 30.0)
           (-30.0 30.0)
  end
  begin
     id 13 
     name thorax
     direction -0.000331275 0.998253 0.0590847   
     length 2.17688   
     axis 0 0 0   XYZ
    dof rx ry rz
    limits (-20.0 45.0)
           (-30.0 30.0)
           (-30.0 30.0)
  end
  begin
     id 14 
     name lowerneck
     direction -0.0561561 0.979832 0.19177   
     length 1.64159   
     axis 0 0 0   XYZ
    dof rx ry rz
    limits (-20.0 45.0)
           (-30.0 30.0)
           (-30.0 30.0)
  end
  begin
     id 15 
     name upperneck
     direction 0.0827153 0.979385 -0.184293   
     length 1.68939   
     axis 0 0 0   XYZ
    dof rx ry rz
    limits (-20.0 45.0)
           (-30.0 30.0)
           (-30.0 30.0)
  end
  begin
     id 16
     name head
     direction 0.0278583 0.995936 -0.0856488  
     length 1.70207  
     axis 0 0 0   XYZ
    dof rx ry rz
    limits (-20.0 45.0)
           (-30.0 30.0)
           (-30.0 30.0)
  end
  begin
     id 17 
     name lclavicle
     direction 0.950993 0.301131 -0.0702275  
     length 3.41652  
     axis 0 0 0   XYZ
    dof ry rz
    limits (-20.0 10.0)
           (0.0 20.0)
  end
  begin
     id 18 
     name lhumerus
     direction 1 -4.48981e-011 -3.9662e-029   
     length 5.32955   
     axis 180 -30 -90   XYZ
    dof rx ry rz
    limits (-60.0 90.0)
           (-90.0 90.0)
           (-90.0 90.0)
  end
  begin
     id 19
     name lradius
     direction 1 -4.48925e-011 -9.0549e-027   
     length 3.69232   
     axis 180 -30 -90   XYZ
    dof rx
    limits (-10.0 170.0)
  end
  begin
     id 20
     name lwrist
     direction 1 -4.49007e-011 -1.49005e-026   
     length 1.84616   
     axis 9.0955e-015 90 90   XYZ
    dof ry
    limits (-180.0 0.0)
 end
  begin
     id 21 
     name lhand
     direction 1 -4.49016e-011 -2.98023e-026   
     length 0.536598   
     axis 1.90115e-014 90 90   XYZ
    dof rx rz
    limits (-90.0 90.0)
           (-45.0 45.0)
  end
  begin
     id 22 
     name lfingers
     direction 1 -4.48924e-011 -5.9578e-026   
     length 0.432619   
     axis 3.80223e-014 90 90   XYZ
    dof rx
    limits (0.0 90.0)
  end
  begin
     id 23
     name lthumb
     direction 0.707107 -6.34947e-011 0.707107   
     length 0.621157   
     axis -90 45 -3.84942e-014   XYZ
    dof rx rz
    limits (-45.0 45.0)
           (-45.0 45.0)
  end
  begin
     id 24 
     name rclavicle
     direction -0.955495 0.276497 -0.102848   
     length 3.36357  
     axis 0 0 0   XYZ 
    dof ry rz
    limits (-10.0 20.0)
           (-20.0 0.0)
  end
  begin
     id 25 
     name rhumerus
     direction -1 -4.48961e-011 3.30983e-027  
     length 5.23431   
     axis 180 30 90   XYZ
    dof rx ry rz
    limits (-90.0 60.0)
           (-90.0 90.0)
           (-90.0 90.0)
  end
  begin
     id 26 
     name rradius
     direction -1 -4.48965e-011 -6.63263e-027   
     length 3.55301   
     axis 180 30 90   XYZ
    dof rx
    limits (-10.0 170.0)
  end
  begin
     id 27 
     name rwrist
     direction -1 -4.48942e-011 -1.48958e-026   
     length 1.77651   
     axis 9.0955e-015 -90 -90   XYZ
    dof ry
    limits (-180.0 0.0)
  end
  begin
     id 28
     name rhand
     direction -1 -4.48977e-011 -2.97966e-026   
     length 0.772522   
     axis 1.90115e-014 -90 -90   XYZ
    dof rx rz
    limits (-90.0 90.0)
           (-45.0 45.0)
  end
  begin
     id 29
     name rfingers
     direction -1 -4.49135e-011 -5.96389e-026   
     length 0.622827   
     axis 3.80223e-014 -90 -90   XYZ
    dof rx
    limits (0.0 90.0)
  end
  begin
     id 30
     name rthumb
     direction -0.707107 -6.34969e-011 0.707107   
     length 0.894259   
     axis -90 -45 3.84942e-014   XYZ
    dof rx rz
    limits (-45.0 45.0)
           (-45.0 45.0)
  end
:hierarchy
  begin
    root lhipjoint rhipjoint lowerback
    lhipjoint lfemur
    lfemur ltibia
    ltibia lfoot
    lfoot ltoes
    rhipjoint rfemur
    rfemur rtibia
    rtibia rfoot
    rfoot rtoes
    lowerback upperback
    upperback thorax
    thorax lowerneck lclavicle rclavicle
    lowerneck upperneck
    upperneck head
    lclavicle lhumerus
    lhumerus lradius
    lradius lwrist
    lwrist lhand lthumb
    lhand lfingers
    rclavicle rhumerus
    rhumerus rradius
    rradius rwrist
    rwrist rhand rthumb
    rhand rfingers
  end

#!OML:ASF F:\VICON\USERDATA\INSTALL\rory3\rory3.ASF
:FULLY-SPECIFIED
:DEGREES
21
root 14.4394 17.6865 -15.0304 -59.8338 -85.1883 60.6013
lowerback 10.8151 2.07054 1.40035
upperback 0.76956 2.86707 -0.387613
thorax -5.16783 1.36313 -1.62185
lowerneck -14.9098 0.520331 -11.2211
upperneck 40.4762 2.01626 2.38589
head 17.2047 -1.11516 3.29574
rclavicle 2.71341e-014 -4.77083e-015
rhumerus -35.1873 -14.8308 -74.1264
rradius 33.7711
rwrist 7.51227
rhand -13.4201 8.56875
rfingers 7.12502
rthumb 12.6882 -21.0258
lclavicle 2.71341e-014 -4.77083e-015
lhumerus -31.4579 11.4948 80.0582
lradius 49.0768
lwrist -1.09586
lhand -22.4166 22.4567
lfingers 7.12502
lthumb 4.00644 52.3987
rfemur -10.1617 -0.401157 18.8406
rtibia 37.799
rfoot -22.8311 1.04984
rtoes -2.8308
lfemur -13.2985 -1.58349 -25.2372
ltibia 30.5262
lfoot -19.8541 -0.20713
ltoes -29.4572
22
root 14.447 17.6795 -14.9713 -56.4533 -85.351 57.3033
lowerback 10.8688 2.04226 1.48839
upperback 0.698268 2.85288 -0.20757
thorax -5.27824 1.3545 -1.48565
lowerneck -15.0429 0.449039 -11.1429
upperneck 40.5036 1.88658 2.42869
head 17.2661 -1.15077 3.28248
rclavicle -4.39314e-014 4.77083e-015
rhumerus -34.9698 -14.8193 -73.8134
rradius 33.6396
rwrist 7.37343
rhand -13.3482 9.27801
rfingers 7.12502
rthumb 12.7576 -20.3122
lclavicle -4.39314e-014 4.77083e-015
lhumerus -31.7404 11.8817 80.1643
lradius 48.6854
lwrist -1.50181
lhand -22.3206 22.3582
lfingers 7.12502
lthumb 4.09916 52.2985
rfemur -10.0326 -0.559557 18.9628
rtibia 37.2682
rfoot -22.6568 0.905596
rtoes -3.00334
lfemur -13.66 -1.35709 -25.0419
ltibia 30.9572
lfoot -18.9225 4.79358
ltoes -39.4268
23
root 14.4519 17.7097 -14.9087 -53.7728 -85.4866 54.572
lowerback 11.1007 1.96429 1.55378
upperback 0.634437 2.77102 -0.0458176
thorax -5.48288 1.31101 -1.35264
lowerneck -15.3146 0.440918 -11.0046
upperneck 40.6479 1.83552 2.50633
head 17.4196 -1.15005 3.29357
rclavicle -1.39149e-015 -4.77083e-015
rhumerus -34.7274 -14.7544 -73.5559
rradius 33.419
rwrist 7.30575
rhand -13.6147 9.72047
rfingers 7.12502
rthumb 12.5006 -19.8856
lclavicle -1.39149e-015 -4.77083e-015
lhumerus -32.0786 12.3543 80.1272
lradius 48.2314
lwrist -1.8267
lhand -22.0135 21.9784
lfingers 7.12502
lthumb 4.39574 51.9128
rfemur -9.68055 -0.669482 18.9874
rtibia 36.6693
rfoot -22.4465 1.00829
rtoes -2.32708
lfemur -13.7703 -2.67505 -24.4525
ltibia 31.3293
lfoot -17.9233 6.0512
ltoes -35.8618
24
root 14.46 17.7408 -14.8463 -51.7599 -85.5336 52.4795
lowerback 11.3568 1.86143 1.52034
upperback 0.597803 2.63958 0.0440418
thorax -5.6748 1.24498 -1.23075
lowerneck -15.5925 0.516898 -10.7236
upperneck 40.7756 1.88521 2.53682
head 17.5567 -1.09129 3.27564
rclavicle 9.64106e-015 -1.11319e-014
rhumerus -34.4346 -14.9995 -73.3075
rradius 33.1169
rwrist 7.62641
rhand -13.7263 9.64556
rfingers 7.12502
rthumb 12.393 -19.9671
lclavicle 9.64106e-015 -1.11319e-014
lhumerus -32.3592 12.5586 79.9905
lradius 47.8397
lwrist -1.76678
lhand -21.7573 22.1079
lfingers 7.12502
lthumb 4.64313 52.0371
rfemur -9.25426 -0.401547 18.9513
rtibia 36.0136
rfoot -22.1462 0.751822
rtoes -2.27347
lfemur -13.7042 -4.98107 -23.645
ltibia 31.6595
lfoot -17.6964 5.66295
ltoes -22.2494
25
root 14.4691 17.7681 -14.7876 -48.1847 -85.5992 48.8832
lowerback 11.5248 1.78053 1.54049
upperback 0.578004 2.54478 0.169462
thorax -5.79749 1.19727 -1.1026
lowerneck -15.7529 0.557844 -10.5548
upperneck 40.7588 1.87529 2.64946
head 17.5844 -1.04956 3.2997
rclavicle -3.21037e-014 -3.18055e-015
rhumerus -34.1475 -15.6929 -72.8694
rradius 32.8069
rwrist 8.28423
rhand -13.9639 9.63536
rfingers 7.12502
rthumb 12.1639 -19.991
lclavicle -3.21037e-014 -3.18055e-015
lhumerus -32.562 12.5497 80.0316
lradius 47.4784
lwrist -1.76979
lhand -22.403 22.4351
lfingers 7.12502
lthumb 4.01962 52.3769
rfemur -8.86649 -0.0418372 19.0491
rtibia 35.2588
rfoot -21.7197 0.406015
rtoes -2.12894
lfemur -13.7689 -6.51949 -22.8613
ltibia 31.939
lfoot -17.2419 6.51012
ltoes -14.3994
26
root 14.4762 17.7912 -14.7247 -45.4263 -85.6293 46.0915
lowerback 11.6892 1.75649 1.56464
upperback 0.579435 2.52559 0.2962
thorax -5.89336 1.18693 -0.986303
lowerneck -15.8022 0.52574 -10.4514
upperneck 40.6314 1.78937 2.69782
head 17.5309 -1.0489 3.28677
rclavicle 2.21645e-014 -7.95139e-016
rhumerus -33.9607 -16.6664 -72.2128
rradius 32.6109
rwrist 8.88189
rhand -14.0375 9.65728
rfingers 7.12502
rthumb 12.0929 -19.9733
lclavicle 2.21645e-014 -7.95139e-016
lhumerus -32.714 12.5116 80.2203
lradius 47.0249
lwrist -1.98669
lhand -23.1316 22.7149
lfingers 7.12502
lthumb 3.31597 52.6689
rfemur -8.50134 -0.0520677 19.0021
rtibia 34.583
rfoot -21.3631 0.366121
rtoes -2.5843
lfemur -13.8054 -7.60606 -22.2622
ltibia 32.1013
lfoot -16.4308 8.38242
ltoes -12.9951
27
root 14.4803 17.8098 -14.6591 -43.9152 -85.6838 44.4342
lowerback 11.9073 1.76311 1.59958
upperback 0.64538 2.54551 0.395191
thorax -5.94838 1.19522 -0.91183
lowerneck -15.8513 0.414698 -10.4232
upperneck 40.4437 1.59749 2.78023
head 17.4537 -1.09348 3.28215
rclavicle -2.5842e-014 -1.19271e-014
rhumerus -33.7463 -17.8206 -71.5871
rradius 32.4239
rwrist 9.1461
rhand -14.1904 9.52929
rfingers 7.12502
rthumb 11.9455 -20.1099
lclavicle -2.5842e-014 -1.19271e-014
lhumerus -32.7437 12.5389 80.3311
lradius 46.3923
lwrist -2.45297
lhand -22.9332 22.7797
lfingers 7.12502
lthumb 3.50758 52.7306
rfemur -8.08138 -0.166147 18.8774
rtibia 34.0815
rfoot -21.1892 0.321943
rtoes -3.84765
lfemur -13.6263 -9.08534 -21.7342
ltibia 32.1323
lfoot -15.4028 10.7995
ltoes -12.1421
28
root 14.4813 17.8284 -14.596 -44.7256 -85.5441 45.0348
lowerback 12.1277 1.715 1.26573
upperback 0.743583 2.43912 0.449718
thorax -5.9868 1.15117 -0.654831
lowerneck -15.8929 0.370668 -10.312
upperneck 40.2331 1.50985 2.78277
head 17.3536 -1.09425 3.24345
rclavicle 4.64162e-014 -1.74931e-014
rhumerus -33.5162 -18.6302 -71.2185
rradius 32.3965
rwrist 9.02524
rhand -14.8677 9.08252
rfingers 7.12502
rthumb 11.2924 -20.5935
lclavicle 4.64162e-014 -1.74931e-014
lhumerus -32.7861 12.7282 80.295
lradius 45.7617
lwrist -3.08512
lhand -22.8022 22.847
lfingers 7.12502
lthumb 3.63412 52.7958
rfemur -7.62006 -0.076515 18.477
rtibia 33.7201
rfoot -21.0504 0.265044
rtoes -4.32439
lfemur -13.2548 -10.9709 -21.4695
ltibia 32.0456
lfoot -14.3996 13.2597
ltoes -10.6304
29
root 14.4835 17.8357 -14.5306 -48.8652 -85.0528 48.9527
lowerback 12.3713 1.67334 0.457522
upperback 0.8243 2.26746 0.374741
thorax -6.06908 1.08612 -0.255964
lowerneck -15.9245 0.390229 -10.1308
upperneck 40.15 1.4855 2.77768
head 17.3162 -1.07083 3.20303
rclavicle 2.08724e-015 1.43125e-014
rhumerus -33.4025 -18.7105 -71.1432
rradius 32.6031
rwrist 8.01199
rhand -15.9297 8.56471
rfingers 7.12502
rthumb 10.268 -21.1647
lclavicle 2.08724e-015 1.43125e-014
lhumerus -32.9291 12.8427 80.1402
lradius 45.1702
lwrist -3.50815
lhand -22.9533 22.881
lfingers 7.12502
lthumb 3.48817 52.8322
rfemur -7.19275 -0.129095 17.571
rtibia 33.458
rfoot -20.965 0.245108
rtoes -5.17477
lfemur -12.6639 -15.343 -21.8647
ltibia 31.9274
lfoot -13.3791 17.8401
ltoes -8.21805
30
root 14.4877 17.8411 -14.464 -50.9796 -84.7783 50.9891
lowerback 12.4554 1.66374 -0.000494564
upperback 0.893989 2.18061 0.242373
thorax -6.05473 1.05338 -0.123318
lowerneck -16.0498 0.402172 -9.73564
upperneck 40.1516 1.37558 2.79517
head 17.3574 -1.05105 3.12377
rclavicle -9.83984e-015 -2.06736e-014
rhumerus -33.3493 -19.0805 -71.1759
rradius 32.8555
rwrist 6.94521
rhand -16.5497 8.13657
rfingers 7.12502
rthumb 9.66978 -21.6215
lclavicle -9.83984e-015 -2.06736e-014
lhumerus -32.9936 12.9017 79.8442
lradius 44.5366
lwrist -3.86396
lhand -23.6359 22.3385
lfingers 7.12502
lthumb 2.82901 52.2995
rfemur -6.94411 -0.151173 16.9499
rtibia 33.1569
rfoot -20.8241 0.21434
rtoes -5.98186
lfemur -12.3092 -19.2744 -21.9651
ltibia 31.9235
lfoot -12.8212 22.0443
ltoes -5.55849
31
root 14.4903 17.8539 -14.3968 -51.0971 -84.7596 51.1287
lowerback 12.454 1.65073 -0.0953214
upperback 0.928673 2.14431 0.166465
thorax -6.01779 1.03691 -0.142593
lowerneck -16.168 0.371072 -9.63119
upperneck 40.1378 1.21639 3.02303
head 17.3879 -1.06478 3.18346
rclavicle 2.48481e-015 7.95139e-015
rhumerus -33.2914 -19.8557 -71.0831
rradius 32.9682
rwrist 6.09445
rhand -17.1018 7.81747
rfingers 7.12502
rthumb 9.13714 -21.9646
lclavicle 2.48481e-015 7.95139e-015
lhumerus -33.1074 12.9637 79.6133
lradius 43.9848
lwrist -4.21457
lhand -25.1844 22.0025
lfingers 7.12502
lthumb 1.33344 51.978
rfemur -6.80454 -0.0693679 16.665
rtibia 32.8551
rfoot -20.7028 0.174906
rtoes -6.16641
lfemur -12.4858 -18.1729 -21.3142
ltibia 31.9837
lfoot -12.3955 21.4956
ltoes -4.68879
32
root 14.4882 17.8805 -14.3237 -50.435 -84.826 50.3728
lowerback 12.5483 1.64357 0.0132403
upperback 1.00114 2.14614 0.149519
thorax -5.98898 1.03378 -0.223209
lowerneck -16.1654 0.296708 -9.68228
upperneck 39.9863 1.04829 3.2261
head 17.3133 -1.09995 3.25187
rclavicle 9.83984e-015 6.36111e-015
rhumerus -33.239 -20.8306 -70.8133
rradius 33.0582
rwrist 5.39054
rhand -17.3166 7.57264
rfingers 7.12502
rthumb 8.92983 -22.2184
lclavicle 9.83984e-015 6.36111e-015
lhumerus -33.1872 12.9287 79.5159
lradius 43.3813
lwrist -4.58859
lhand -26.2737 22.3862
lfingers 7.12502
lthumb 0.28144 52.3657
rfemur -6.47523 -0.0263645 16.4891
rtibia 32.4641
rfoot -20.6095 0.199027
rtoes -6.406
lfemur -13.323 -4.83738 -19.8536
ltibia 32.1037
lfoot -13.2434 9.51625
ltoes -8.06427
33
root 14.4928 17.8929 -14.2508 -51.137 -84.8723 50.983
lowerback 12.6744 1.68934 0.0283747
upperback 1.05471 2.20361 0.10198
thorax -6.00004 1.05989 -0.294502
lowerneck -16.0043 0.200311 -9.70998
upperneck 39.7306 0.814349 3.44159
head 17.1471 -1.15075 3.30386
rclavicle -1.60022e-014 -5.56597e-015
rhumerus -33.3022 -21.8552 -70.4862
rradius 33.2574
rwrist 4.70221
rhand -17.4985 7.2925
rfingers 7.12502
rthumb 8.75428 -22.5059
lclavicle -1.60022e-014 -5.56597e-015
lhumerus -33.206 12.7874 79.3804
lradius 42.6864
lwrist -4.84381
lhand -26.5192 22.2929
lfingers 7.12502
lthumb 0.0442886 52.2726
rfemur -6.18695 0.0188574 16.2134
rtibia 32.0609
rfoot -20.4244 0.276118
rtoes -6.65862
lfemur -13.2935 -4.58008 -19.2347
ltibia 32.1551
lfoot -12.8954 9.51119
ltoes -8.89075
34
root 14.4969 17.9042 -14.1802 -52.7681 -84.837 52.6328
lowerback 12.6879 1.72327 -0.174018
upperback 1.08304 2.21486 0.0360927
thorax -5.98264 1.06944 -0.251585
lowerneck -15.9934 0.123827 -9.64813
upperneck 39.6207 0.642568 3.53118
head 17.0986 -1.19113 3.29964
rclavicle -6.36111e-015 6.36111e-015
rhumerus -33.2797 -22.501 -70.3403
rradius 33.4217
rwrist 3.72224
rhand -18.1095 7.08601
rfingers 7.12502
rthumb 8.16465 -22.7363
lclavicle -6.36111e-015 6.36111e-015
lhumerus -33.2073 12.8493 79.1386
lradius 41.9836
lwrist -5.17164
lhand -26.6807 22.2322
lfingers 7.12502
lthumb -0.111707 52.2119
rfemur -6.00842 0.079812 15.8219
rtibia 31.6553
rfoot -20.1682 0.367763
rtoes -6.77829
lfemur -13.3221 -4.67008 -18.7009
ltibia 32.1044
lfoot -12.448 9.5836
ltoes -9.35786
35
root 14.4974 17.9161 -14.1084 -53.1889 -84.8072 53.0929
lowerback 12.6292 1.69599 -0.397672
upperback 1.11739 2.14776 0.0517883
thorax -5.92262 1.04235 -0.0948984
lowerneck -16.0877 0.102601 -9.69107
upperneck 39.6221 0.613844 3.58968
head 17.1256 -1.20102 3.33035
rclavicle -5.66536e-015 1.82882e-014
rhumerus -33.1819 -23.0329 -70.2372
rradius 33.5121
rwrist 2.9778
rhand -18.6815 7.04292
rfingers 7.12502
rthumb 7.61259 -22.8001
lclavicle -5.66536e-015 1.82882e-014
lhumerus -33.2529 13.1566 78.8921
lradius 41.3205
lwrist -5.65537
lhand -26.5482 22.3553
lfingers 7.12502
lthumb 0.0162875 52.335
rfemur -5.86692 0.163937 15.531
rtibia 31.3198
rfoot -19.8589 0.405053
rtoes -6.68448
lfemur -13.2954 -5.10438 -18.0652
ltibia 31.8809
lfoot -11.8866 9.4938
ltoes -8.37316
